<svg id="svg" version="1.1" xmlns="http://www.w3.org/2000/svg" xmlns:xlink="http://www.w3.org/1999/xlink" width="400" height="400" viewBox="0, 0, 400,400"><g id="svgg"><path id="path0" d="M192.188 91.245 C 191.436 91.332,189.150 91.590,187.109 91.820 C 120.135 99.345,76.020 166.413,95.514 231.072 C 121.450 317.103,233.348 337.054,287.474 265.299 C 333.013 204.926,303.926 116.501,231.641 95.566 C 219.718 92.113,201.720 90.142,192.188 91.245 M216.016 94.874 C 262.356 102.303,297.526 136.499,305.054 181.445 C 317.818 257.649,249.803 321.142,174.476 303.344 C 141.393 295.527,113.802 271.275,100.997 238.757 C 74.847 172.353,119.728 100.489,191.406 93.993 C 196.070 93.570,211.278 94.115,216.016 94.874 M198.687 102.148 C 198.325 103.092,198.842 103.906,199.805 103.906 C 200.767 103.906,201.285 103.092,200.923 102.148 C 200.799 101.826,200.296 101.563,199.805 101.563 C 199.314 101.563,198.811 101.826,198.687 102.148 M189.996 102.512 C 189.607 103.525,190.152 104.363,191.112 104.227 C 191.757 104.135,191.992 103.841,191.992 103.125 C 191.992 101.972,190.391 101.480,189.996 102.512 M207.653 102.587 C 207.271 103.583,208.409 104.605,209.285 104.052 C 209.657 103.818,209.961 103.293,209.961 102.887 C 209.961 101.882,208.020 101.630,207.653 102.587 M181.340 103.582 C 180.711 104.211,180.731 104.876,181.396 105.428 C 182.257 106.143,183.262 105.516,183.127 104.348 C 182.996 103.223,182.088 102.834,181.340 103.582 M216.548 103.711 C 216.206 104.602,216.684 105.469,217.518 105.469 C 218.487 105.469,219.220 104.568,218.910 103.760 C 218.604 102.962,216.849 102.925,216.548 103.711 M172.417 105.637 C 172.028 106.650,172.574 107.488,173.533 107.352 C 174.179 107.260,174.414 106.966,174.414 106.250 C 174.414 105.097,172.813 104.605,172.417 105.637 M225.542 105.637 C 225.153 106.650,225.699 107.488,226.658 107.352 C 227.304 107.260,227.539 106.966,227.539 106.250 C 227.539 105.097,225.938 104.605,225.542 105.637 M164.160 108.071 C 163.476 108.347,163.549 110.026,164.258 110.298 C 165.675 110.841,166.623 109.358,165.547 108.281 C 165.047 107.782,164.924 107.763,164.160 108.071 M233.984 108.398 C 233.596 108.866,233.596 109.103,233.984 109.570 C 235.008 110.803,236.649 109.885,236.079 108.398 C 235.955 108.076,235.543 107.813,235.162 107.813 C 234.782 107.813,234.252 108.076,233.984 108.398 M242.192 111.909 C 241.494 112.750,242.003 113.672,243.164 113.672 C 243.715 113.672,244.267 113.406,244.392 113.081 C 244.651 112.406,243.896 111.328,243.164 111.328 C 242.894 111.328,242.457 111.590,242.192 111.909 M155.598 112.335 C 155.468 112.674,155.636 113.225,155.971 113.560 C 156.798 114.387,157.813 113.917,157.813 112.708 C 157.813 111.553,156.015 111.250,155.598 112.335 M156.152 155.597 L 112.560 199.475 156.380 243.294 L 200.200 287.113 223.632 263.576 C 236.520 250.631,256.206 230.854,267.379 219.629 L 287.693 199.218 243.945 155.468 C 219.883 131.406,200.095 111.719,199.970 111.719 C 199.845 111.719,180.127 131.464,156.152 155.597 M148.106 115.965 C 147.211 116.542,147.747 117.761,148.958 117.900 C 149.957 118.015,150.046 117.926,149.931 116.927 C 149.800 115.787,149.020 115.377,148.106 115.965 M241.968 157.397 L 283.739 199.170 247.756 235.425 C 227.965 255.365,209.166 274.272,205.981 277.439 L 200.190 283.199 158.305 241.307 L 116.420 199.414 158.048 157.520 C 180.944 134.478,199.793 115.625,199.936 115.625 C 200.080 115.625,218.994 134.423,241.968 157.397 M250.152 116.184 C 249.763 117.197,250.308 118.035,251.268 117.898 C 251.913 117.807,252.148 117.513,252.148 116.797 C 252.148 115.644,250.548 115.152,250.152 116.184 M140.386 121.262 C 139.997 122.275,140.542 123.113,141.502 122.977 C 142.148 122.885,142.383 122.591,142.383 121.875 C 142.383 120.722,140.782 120.230,140.386 121.262 M257.574 121.262 C 257.185 122.275,257.730 123.113,258.690 122.977 C 259.335 122.885,259.570 122.591,259.570 121.875 C 259.570 120.722,257.969 120.230,257.574 121.262 M264.605 126.730 C 264.216 127.744,264.761 128.582,265.721 128.445 C 266.367 128.354,266.602 128.060,266.602 127.344 C 266.602 126.191,265.001 125.699,264.605 126.730 M133.343 127.151 C 133.205 127.511,133.365 128.064,133.705 128.404 C 134.535 129.234,135.636 128.758,135.477 127.638 C 135.323 126.554,133.714 126.186,133.343 127.151 M199.609 145.508 C 199.609 157.617,199.745 164.063,200.000 164.063 C 200.255 164.063,200.391 157.617,200.391 145.508 C 200.391 133.398,200.255 126.953,200.000 126.953 C 199.745 126.953,199.609 133.398,199.609 145.508 M271.363 132.873 C 270.565 133.319,270.511 134.120,271.240 134.725 C 272.013 135.366,273.047 134.831,273.047 133.789 C 273.047 132.749,272.305 132.346,271.363 132.873 M127.214 133.073 C 127.070 133.216,126.953 133.743,126.953 134.245 C 126.953 135.315,128.768 135.579,129.158 134.565 C 129.562 133.510,127.986 132.300,127.214 133.073 M188.206 133.409 C 188.093 133.522,188.220 134.621,188.489 135.850 C 188.759 137.080,190.069 143.799,191.402 150.781 C 194.157 165.218,194.039 164.711,194.533 164.217 C 194.761 163.989,194.034 159.438,192.603 152.140 C 191.340 145.699,190.009 138.804,189.644 136.816 C 189.034 133.490,188.764 132.851,188.206 133.409 M210.938 133.532 C 210.938 134.126,207.599 152.146,206.311 158.505 C 205.354 163.226,205.229 165.414,205.987 164.167 C 206.262 163.715,211.176 138.369,211.832 134.025 C 211.877 133.725,211.694 133.403,211.426 133.309 C 211.157 133.215,210.938 133.315,210.938 133.532 M121.674 140.101 C 120.965 140.809,121.061 141.372,121.989 141.958 C 122.812 142.477,123.974 141.458,123.617 140.529 C 123.261 139.601,122.370 139.405,121.674 140.101 M276.714 140.012 C 276.325 141.025,276.870 141.863,277.830 141.727 C 278.476 141.635,278.711 141.341,278.711 140.625 C 278.711 139.472,277.110 138.980,276.714 140.012 M179.189 141.302 C 178.964 141.718,188.355 165.234,188.746 165.234 C 189.368 165.234,189.004 164.164,184.532 152.859 C 180.253 142.041,179.579 140.582,179.189 141.302 M219.979 141.831 C 219.779 142.349,217.646 147.752,215.239 153.836 C 211.473 163.354,210.567 166.126,211.538 165.155 C 212.252 164.441,221.033 141.580,220.715 141.262 C 220.477 141.024,220.210 141.231,219.979 141.831 M282.035 147.456 C 281.348 148.284,281.840 149.219,282.963 149.219 C 284.053 149.219,284.432 148.559,283.918 147.559 C 283.488 146.722,282.681 146.678,282.035 147.456 M116.167 147.824 C 115.778 148.838,116.324 149.675,117.283 149.539 C 117.929 149.447,118.164 149.153,118.164 148.438 C 118.164 147.284,116.563 146.793,116.167 147.824 M171.484 149.799 C 171.484 150.090,180.905 164.963,181.494 165.602 C 183.350 167.615,181.815 164.573,177.482 157.651 C 173.302 150.973,171.484 148.593,171.484 149.799 M222.145 158.301 C 219.248 163.081,217.046 167.054,217.253 167.131 C 217.770 167.322,228.132 150.903,228.127 149.902 C 228.120 148.775,226.765 150.677,222.145 158.301 M111.889 155.244 C 111.102 155.819,111.349 156.914,112.352 157.299 C 113.106 157.588,114.115 156.452,113.810 155.656 C 113.507 154.867,112.654 154.684,111.889 155.244 M286.469 155.273 C 286.160 156.080,286.580 157.031,287.245 157.031 C 288.027 157.031,288.801 155.978,288.533 155.278 C 288.240 154.515,286.762 154.512,286.469 155.273 M165.234 156.222 C 165.234 156.978,173.185 166.034,173.539 165.680 C 173.758 165.460,172.343 163.474,169.910 160.590 C 166.212 156.204,165.234 155.291,165.234 156.222 M228.906 162.159 C 222.062 170.259,222.070 170.249,222.429 170.599 C 222.598 170.764,223.432 170.107,224.283 169.141 C 227.895 165.039,235.156 156.334,235.156 156.106 C 235.156 155.122,233.484 156.742,228.906 162.159 M158.984 162.408 C 158.984 163.157,168.365 172.025,168.750 171.640 C 169.029 171.362,167.706 169.818,164.493 166.673 C 160.265 162.534,158.984 161.543,158.984 162.408 M234.156 168.225 C 227.962 173.631,226.244 175.391,227.159 175.391 C 227.688 175.391,241.797 162.880,241.797 162.411 C 241.797 161.674,240.751 162.469,234.156 168.225 M108.293 163.348 C 107.669 163.972,107.683 164.641,108.333 165.180 C 109.051 165.776,110.288 164.841,110.097 163.846 C 109.923 162.946,108.960 162.681,108.293 163.348 M290.074 163.526 C 289.801 164.239,290.463 165.234,291.211 165.234 C 291.959 165.234,292.621 164.239,292.348 163.526 C 292.214 163.177,291.702 162.891,291.211 162.891 C 290.720 162.891,290.208 163.177,290.074 163.526 M151.775 168.723 C 151.351 169.408,167.843 180.360,168.423 179.780 C 168.626 179.577,165.275 177.139,160.370 173.921 C 155.749 170.890,151.881 168.550,151.775 168.723 M247.441 168.723 C 247.237 168.924,243.291 171.566,238.672 174.595 C 230.879 179.704,229.359 180.859,230.424 180.859 C 231.037 180.859,248.828 169.112,248.828 168.708 C 248.828 168.250,247.913 168.260,247.441 168.723 M184.570 171.307 C 180.488 171.580,176.577 171.820,175.879 171.840 C 173.804 171.897,173.900 175.391,175.977 175.391 C 179.259 175.391,179.426 176.823,179.231 203.209 C 179.084 222.989,179.284 221.856,175.883 222.247 L 174.023 222.461 173.905 224.086 L 173.787 225.711 176.835 226.014 C 191.111 227.434,207.371 226.263,213.024 223.408 C 229.400 215.138,233.237 189.004,219.727 177.759 C 212.523 171.762,203.221 170.055,184.570 171.307 M105.230 172.043 C 104.841 173.056,105.386 173.894,106.346 173.758 C 106.992 173.666,107.227 173.372,107.227 172.656 C 107.227 171.503,105.626 171.011,105.230 172.043 M292.730 172.043 C 292.341 173.056,292.886 173.894,293.846 173.758 C 294.492 173.666,294.727 173.372,294.727 172.656 C 294.727 171.503,293.126 171.011,292.730 172.043 M201.751 176.373 C 211.830 178.508,216.922 186.028,216.954 198.828 C 216.992 214.418,209.463 222.469,195.508 221.759 C 188.494 221.402,188.941 223.337,189.138 194.141 L 189.258 176.367 191.016 176.133 C 194.334 175.691,199.026 175.795,201.751 176.373 M144.229 176.632 C 144.313 176.885,145.866 177.704,147.679 178.452 C 149.493 179.199,154.647 181.365,159.133 183.265 C 163.619 185.165,167.530 186.719,167.824 186.719 C 168.746 186.719,168.408 186.032,167.285 185.620 C 166.694 185.404,161.377 183.191,155.469 180.702 C 144.281 175.990,143.978 175.880,144.229 176.632 M243.457 181.138 C 237.173 183.838,232.031 186.218,232.031 186.428 C 232.031 187.245,255.441 177.484,255.458 176.660 C 255.473 175.953,255.876 175.803,243.457 181.138 M295.020 180.337 C 294.369 180.599,294.398 181.825,295.068 182.381 C 296.279 183.386,297.531 181.672,296.406 180.547 C 295.907 180.047,295.783 180.029,295.020 180.337 M103.266 181.055 C 102.957 181.861,103.376 182.813,104.041 182.813 C 104.823 182.813,105.598 181.759,105.329 181.060 C 105.037 180.297,103.559 180.293,103.266 181.055 M136.131 185.940 C 135.830 186.427,136.107 186.520,140.234 187.314 C 142.061 187.666,148.971 189.100,155.591 190.501 C 162.212 191.903,167.734 192.943,167.864 192.814 C 168.443 192.234,169.005 192.371,146.691 187.680 C 134.917 185.204,136.432 185.454,136.131 185.940 M250.195 188.272 C 243.320 189.732,236.685 191.135,235.449 191.390 C 233.922 191.704,233.203 192.039,233.203 192.437 C 233.203 192.812,233.448 192.947,233.887 192.814 C 235.066 192.455,241.613 191.043,252.344 188.831 C 263.989 186.432,264.063 186.413,264.063 185.911 C 264.063 185.349,263.527 185.440,250.195 188.272 M101.982 189.790 C 101.367 190.939,102.340 192.035,103.449 191.442 C 104.395 190.936,104.534 190.237,103.828 189.531 C 103.151 188.854,102.429 188.955,101.982 189.790 M296.354 189.323 C 296.211 189.466,296.094 189.993,296.094 190.495 C 296.094 191.565,297.909 191.829,298.298 190.815 C 298.703 189.760,297.127 188.550,296.354 189.323 M101.567 198.628 C 100.880 199.456,101.372 200.391,102.494 200.391 C 103.584 200.391,103.963 199.730,103.449 198.730 C 103.019 197.894,102.212 197.850,101.567 198.628 M127.930 198.437 C 127.795 198.655,127.916 198.922,128.198 199.030 C 129.215 199.420,167.576 199.034,167.676 198.633 C 167.812 198.088,128.266 197.893,127.930 198.437 M233.203 198.633 C 233.203 199.146,235.655 199.219,252.930 199.219 C 270.204 199.219,272.656 199.146,272.656 198.633 C 272.656 198.120,270.204 198.047,252.930 198.047 C 235.655 198.047,233.203 198.120,233.203 198.633 M296.636 198.605 C 296.247 199.619,296.792 200.457,297.752 200.320 C 298.398 200.229,298.633 199.935,298.633 199.219 C 298.633 198.066,297.032 197.574,296.636 198.605 M151.443 208.209 C 136.711 211.535,135.546 211.848,136.043 212.345 C 136.413 212.715,167.724 205.618,167.888 205.126 C 168.109 204.461,167.712 204.536,151.443 208.209 M232.984 205.116 C 232.678 205.612,260.078 212.058,263.363 212.263 C 265.898 212.421,263.153 211.341,258.320 210.279 C 239.671 206.180,233.148 204.851,232.984 205.116 M101.714 207.590 C 101.325 208.603,101.870 209.441,102.830 209.305 C 103.476 209.213,103.711 208.919,103.711 208.203 C 103.711 207.050,102.110 206.558,101.714 207.590 M296.246 207.590 C 295.857 208.603,296.402 209.441,297.362 209.305 C 298.007 209.213,298.242 208.919,298.242 208.203 C 298.242 207.050,296.641 206.558,296.246 207.590 M166.016 211.487 C 165.479 211.772,160.425 213.902,154.785 216.220 C 145.658 219.972,143.393 221.102,145.020 221.090 C 145.963 221.083,167.727 211.858,167.880 211.401 C 168.081 210.797,167.243 210.836,166.016 211.487 M231.425 211.360 C 231.134 211.831,232.250 212.327,244.067 216.977 C 253.130 220.543,257.104 221.765,254.688 220.242 C 253.243 219.332,231.605 211.070,231.425 211.360 M103.394 216.076 C 102.596 216.523,102.542 217.323,103.271 217.928 C 104.044 218.570,105.078 218.034,105.078 216.992 C 105.078 215.953,104.336 215.549,103.394 216.076 M294.936 216.379 C 294.632 216.948,294.683 217.283,295.145 217.746 C 295.828 218.428,297.266 217.961,297.266 217.057 C 297.266 215.695,295.567 215.201,294.936 216.379 M229.314 217.285 C 229.337 217.933,248.046 229.734,248.553 229.421 C 249.068 229.102,248.989 229.047,238.582 222.436 C 229.199 216.476,229.287 216.525,229.314 217.285 M159.766 223.112 C 152.214 228.244,150.882 229.297,151.942 229.297 C 152.430 229.297,167.808 218.935,168.157 218.371 C 168.925 217.128,166.817 218.319,159.766 223.112 M226.003 222.223 C 225.880 222.421,228.988 225.444,232.909 228.940 C 241.852 236.913,241.285 236.450,241.558 236.008 C 241.684 235.803,238.776 232.936,235.096 229.635 C 226.828 222.220,226.281 221.773,226.003 222.223 M105.093 225.363 C 104.519 226.436,105.596 227.512,106.668 226.939 C 107.527 226.479,107.637 225.762,106.953 225.078 C 106.269 224.394,105.553 224.504,105.093 225.363 M293.121 225.168 C 292.732 226.181,293.277 227.019,294.237 226.883 C 294.882 226.791,295.117 226.497,295.117 225.781 C 295.117 224.628,293.516 224.136,293.121 225.168 M221.484 226.391 C 221.484 226.830,234.838 242.188,235.219 242.188 C 235.929 242.188,235.418 241.509,228.906 233.804 C 223.373 227.256,221.484 225.370,221.484 226.391 M162.942 231.232 C 160.324 233.731,158.612 235.651,158.772 235.909 C 159.016 236.305,167.949 228.233,168.294 227.303 C 168.732 226.127,166.821 227.529,162.942 231.232 M216.406 229.621 C 216.406 229.836,218.223 232.883,220.443 236.392 C 222.663 239.902,225.232 244.048,226.151 245.605 C 227.718 248.259,228.543 249.084,228.495 247.949 C 228.432 246.445,216.406 228.214,216.406 229.621 M211.040 232.520 C 211.491 234.561,220.151 255.921,220.508 255.870 C 221.113 255.783,221.051 255.601,216.179 243.262 C 212.228 233.256,210.325 229.277,211.040 232.520 M168.613 236.686 C 165.179 240.964,164.229 242.478,165.199 242.122 C 166.055 241.809,173.097 232.706,172.751 232.360 C 172.519 232.128,170.978 233.740,168.613 236.686 M179.389 234.473 C 176.252 239.443,171.484 247.279,171.484 247.465 C 171.484 248.859,180.257 235.856,181.497 232.623 C 182.067 231.138,180.781 232.267,179.389 234.473 M187.855 233.496 C 187.631 234.087,185.814 238.789,183.816 243.945 C 179.225 255.792,179.091 256.174,179.417 256.501 C 179.786 256.869,189.063 233.961,189.063 232.681 C 189.063 231.978,188.213 232.551,187.855 233.496 M205.321 232.736 C 205.197 232.937,206.042 238.090,207.200 244.188 C 208.357 250.285,209.691 257.339,210.163 259.863 C 210.910 263.851,211.719 265.881,211.719 263.765 C 211.719 260.977,205.752 232.038,205.321 232.736 M199.609 252.148 C 199.609 264.779,199.745 271.484,200.000 271.484 C 200.255 271.484,200.391 264.779,200.391 252.148 C 200.391 239.518,200.255 232.813,200.000 232.813 C 199.745 232.813,199.609 239.518,199.609 252.148 M107.854 233.740 C 107.212 234.513,107.747 235.547,108.789 235.547 C 109.280 235.547,109.792 235.261,109.926 234.911 C 110.199 234.198,109.537 233.203,108.789 233.203 C 108.519 233.203,108.098 233.445,107.854 233.740 M193.945 234.082 C 192.875 238.541,188.483 264.141,188.758 264.311 C 189.289 264.639,189.149 265.275,191.952 249.852 C 193.392 241.929,194.672 234.942,194.795 234.325 C 195.063 232.985,194.263 232.757,193.945 234.082 M290.386 233.762 C 289.997 234.775,290.542 235.613,291.502 235.477 C 292.148 235.385,292.383 235.091,292.383 234.375 C 292.383 233.222,290.782 232.730,290.386 233.762 M111.343 242.160 C 111.039 242.727,111.087 243.063,111.536 243.511 C 112.608 244.584,114.210 243.111,113.240 241.943 C 112.612 241.186,111.815 241.277,111.343 242.160 M286.860 241.992 C 286.514 242.893,287.000 243.750,287.855 243.750 C 288.822 243.750,289.185 243.188,288.866 242.184 C 288.577 241.274,287.187 241.141,286.860 241.992 M282.611 249.867 C 281.896 250.582,282.000 251.144,282.956 251.730 C 283.490 252.057,283.757 251.990,284.176 251.427 C 285.169 250.090,283.776 248.701,282.611 249.867 M115.386 250.168 C 114.997 251.181,115.542 252.019,116.502 251.883 C 117.148 251.791,117.383 251.497,117.383 250.781 C 117.383 249.628,115.782 249.136,115.386 250.168 M120.464 257.590 C 120.075 258.603,120.620 259.441,121.580 259.305 C 122.226 259.213,122.461 258.919,122.461 258.203 C 122.461 257.050,120.860 256.558,120.464 257.590 M277.485 257.617 C 277.176 258.424,277.595 259.375,278.260 259.375 C 279.042 259.375,279.816 258.321,279.548 257.622 C 279.255 256.859,277.777 256.855,277.485 257.617 M272.164 264.112 C 271.348 264.568,271.287 265.365,272.021 265.975 C 272.728 266.561,273.828 266.114,273.828 265.240 C 273.828 264.226,272.984 263.653,272.164 264.112 M125.933 264.621 C 125.544 265.635,126.089 266.472,127.049 266.336 C 127.695 266.244,127.930 265.950,127.930 265.234 C 127.930 264.081,126.329 263.590,125.933 264.621 M132.574 270.871 C 132.185 271.885,132.730 272.722,133.690 272.586 C 134.335 272.494,134.570 272.200,134.570 271.484 C 134.570 270.331,132.969 269.840,132.574 270.871 M265.386 270.871 C 264.997 271.885,265.542 272.722,266.502 272.586 C 267.148 272.494,267.383 272.200,267.383 271.484 C 267.383 270.331,265.782 269.840,265.386 270.871 M139.214 276.730 C 138.825 277.744,139.370 278.582,140.330 278.445 C 140.976 278.354,141.211 278.060,141.211 277.344 C 141.211 276.191,139.610 275.699,139.214 276.730 M258.460 276.737 C 258.085 277.715,258.617 278.568,259.522 278.439 C 260.115 278.354,260.352 278.042,260.352 277.344 C 260.352 276.206,258.849 275.724,258.460 276.737 M146.636 281.809 C 146.247 282.822,146.792 283.660,147.752 283.523 C 148.398 283.432,148.633 283.138,148.633 282.422 C 148.633 281.269,147.032 280.777,146.636 281.809 M251.313 281.836 C 250.968 282.736,251.453 283.594,252.308 283.594 C 253.275 283.594,253.638 283.032,253.319 282.028 C 253.030 281.117,251.640 280.984,251.313 281.836 M154.449 286.105 C 154.060 287.119,154.605 287.957,155.565 287.820 C 156.210 287.729,156.445 287.435,156.445 286.719 C 156.445 285.566,154.844 285.074,154.449 286.105 M243.511 286.105 C 243.122 287.119,243.667 287.957,244.627 287.820 C 245.273 287.729,245.508 287.435,245.508 286.719 C 245.508 285.566,243.907 285.074,243.511 286.105 M162.541 289.599 C 161.886 290.389,162.443 291.406,163.531 291.406 C 164.645 291.406,165.134 290.469,164.449 289.643 C 163.847 288.918,163.120 288.901,162.541 289.599 M235.565 289.627 C 234.852 290.486,235.355 291.406,236.537 291.406 C 237.413 291.406,237.535 291.260,237.428 290.335 C 237.287 289.111,236.303 288.737,235.565 289.627 M171.312 292.318 C 170.312 293.049,170.675 294.336,171.880 294.336 C 172.568 294.336,172.886 294.097,172.968 293.521 C 173.136 292.347,172.200 291.668,171.312 292.318 M227.105 292.746 C 226.716 293.760,227.261 294.597,228.221 294.461 C 228.867 294.369,229.102 294.075,229.102 293.359 C 229.102 292.206,227.501 291.715,227.105 292.746 M179.449 294.699 C 179.060 295.713,179.605 296.550,180.565 296.414 C 181.210 296.322,181.445 296.028,181.445 295.313 C 181.445 294.159,179.844 293.668,179.449 294.699 M218.511 294.699 C 218.122 295.713,218.667 296.550,219.627 296.414 C 220.273 296.322,220.508 296.028,220.508 295.313 C 220.508 294.159,218.907 293.668,218.511 294.699 M188.296 296.067 C 187.858 296.885,188.758 298.213,189.568 297.943 C 190.422 297.659,190.795 296.574,190.262 295.931 C 189.570 295.098,188.785 295.152,188.296 296.067 M201.004 296.318 C 200.243 297.078,200.234 297.430,200.958 298.031 C 201.727 298.670,203.125 298.168,203.125 297.253 C 203.125 296.146,201.772 295.549,201.004 296.318 M209.514 296.294 C 209.255 296.969,210.011 298.047,210.742 298.047 C 211.490 298.047,212.153 297.052,211.879 296.339 C 211.572 295.538,209.817 295.505,209.514 296.294 M196.626 296.679 C 196.491 297.030,196.561 297.499,196.782 297.719 C 197.418 298.356,198.633 297.927,198.633 297.065 C 198.633 296.071,196.981 295.753,196.626 296.679 " stroke="none" fill="#66e6a6" fill-rule="evenodd"></path><path id="path1" d="M0.000 200.000 L 0.000 400.000 200.000 400.000 L 400.000 400.000 400.000 200.000 L 400.000 0.000 200.000 0.000 L 0.000 0.000 0.000 200.000 M212.844 91.614 C 298.565 101.010,339.223 201.515,284.658 269.141 C 235.281 330.338,137.889 319.705,102.560 249.260 C 63.390 171.157,125.716 82.064,212.844 91.614 M191.992 94.154 C 119.659 100.053,74.482 173.236,101.777 240.298 C 136.344 325.226,255.844 328.674,295.897 245.898 C 331.482 172.356,273.389 87.516,191.992 94.154 M200.766 101.739 C 201.800 102.985,200.274 104.944,199.056 103.933 C 198.237 103.254,198.270 102.090,199.121 101.594 C 200.037 101.060,200.215 101.076,200.766 101.739 M191.570 101.800 C 192.363 102.104,192.387 104.137,191.602 104.438 C 190.084 105.021,188.781 103.020,190.066 102.081 C 190.891 101.477,190.783 101.498,191.570 101.800 M209.538 101.800 C 210.374 102.120,210.323 103.790,209.463 104.250 C 208.018 105.023,206.724 103.197,207.891 102.031 C 208.423 101.499,208.666 101.465,209.538 101.800 M218.672 103.203 C 219.856 104.387,218.245 106.509,216.967 105.448 C 215.977 104.626,216.539 102.734,217.773 102.734 C 218.010 102.734,218.414 102.945,218.672 103.203 M183.404 103.925 C 183.909 105.515,181.717 106.624,180.912 105.186 C 180.377 104.230,181.075 103.125,182.214 103.125 C 182.815 103.125,183.242 103.412,183.404 103.925 M227.511 105.301 C 228.386 106.176,227.768 107.813,226.563 107.813 C 226.129 107.813,225.000 106.684,225.000 106.250 C 225.000 105.816,226.129 104.688,226.563 104.688 C 226.747 104.688,227.174 104.964,227.511 105.301 M174.589 105.639 C 174.934 106.055,174.943 106.408,174.623 107.006 C 173.791 108.560,171.530 107.563,172.064 105.878 C 172.363 104.938,173.887 104.793,174.589 105.639 M235.859 107.891 C 237.029 109.060,235.701 110.906,234.267 110.104 C 233.137 109.471,233.668 107.422,234.961 107.422 C 235.197 107.422,235.602 107.633,235.859 107.891 M166.043 108.431 C 166.728 109.257,166.044 110.352,164.844 110.352 C 163.643 110.352,162.960 109.257,163.645 108.431 C 163.927 108.091,164.467 107.813,164.844 107.813 C 165.221 107.813,165.760 108.091,166.043 108.431 M157.797 111.895 C 158.510 112.754,157.926 114.063,156.829 114.063 C 155.685 114.063,154.996 112.992,155.516 112.022 C 155.965 111.183,157.151 111.117,157.797 111.895 M243.854 155.367 L 287.898 199.406 244.030 243.274 L 200.161 287.143 156.428 243.363 C 132.375 219.284,112.620 199.499,112.527 199.396 C 112.435 199.293,130.980 180.577,153.738 157.806 C 187.042 124.483,199.700 111.715,199.808 111.339 C 199.809 111.333,219.630 131.146,243.854 155.367 M244.410 111.967 C 244.734 112.809,244.040 113.867,243.164 113.867 C 242.781 113.867,242.289 113.583,242.070 113.237 C 241.473 112.291,242.025 111.328,243.164 111.328 C 243.731 111.328,244.272 111.606,244.410 111.967 M150.221 116.486 C 150.745 118.138,148.128 118.979,147.506 117.359 C 147.383 117.040,147.627 116.436,148.047 116.016 C 148.924 115.139,149.857 115.341,150.221 116.486 M252.121 115.848 C 252.821 116.548,252.815 116.524,252.497 117.351 C 252.294 117.882,250.000 118.299,250.000 117.805 C 250.000 117.716,249.902 117.387,249.782 117.075 C 249.298 115.812,251.125 114.853,252.121 115.848 M188.475 127.051 C 182.253 133.335,163.562 152.120,146.938 168.796 C 120.472 195.345,116.765 199.206,117.123 199.850 C 117.348 200.255,136.138 219.181,158.879 241.909 L 200.227 283.233 211.099 272.183 C 217.079 266.105,235.832 247.246,252.774 230.273 L 283.576 199.414 241.878 157.520 C 218.944 134.478,200.092 115.625,199.983 115.625 C 199.875 115.625,194.696 120.767,188.475 127.051 M142.355 120.926 C 142.693 121.264,142.969 121.691,142.969 121.875 C 142.969 122.059,142.693 122.486,142.355 122.824 C 142.017 123.161,141.590 123.438,141.406 123.438 C 141.222 123.438,140.795 123.161,140.458 122.824 C 140.120 122.486,139.844 122.059,139.844 121.875 C 139.844 121.691,140.120 121.264,140.458 120.926 C 140.795 120.589,141.222 120.313,141.406 120.313 C 141.590 120.313,142.017 120.589,142.355 120.926 M259.544 120.831 C 260.512 121.539,260.034 123.047,258.841 123.047 C 257.244 123.047,256.624 121.947,257.645 120.926 C 258.393 120.179,258.635 120.167,259.544 120.831 M266.807 126.972 C 267.528 128.319,265.784 129.400,264.676 128.292 C 263.909 127.525,263.906 127.166,264.660 126.412 C 265.352 125.719,266.264 125.957,266.807 126.972 M135.531 126.739 C 136.318 127.687,135.649 128.971,134.442 128.831 C 133.283 128.697,132.862 127.640,133.609 126.739 C 134.209 126.016,134.932 126.016,135.531 126.739 M200.586 145.736 C 200.586 161.939,200.513 164.258,200.000 164.258 C 199.419 164.258,198.853 128.863,199.410 127.409 C 200.396 124.837,200.586 127.795,200.586 145.736 M273.074 133.041 C 273.768 133.877,273.070 134.961,271.838 134.961 C 270.881 134.961,270.437 134.069,270.853 132.985 C 271.141 132.236,272.433 132.268,273.074 133.041 M129.222 134.048 C 129.371 135.334,127.991 135.971,127.065 135.045 C 126.139 134.118,126.776 132.739,128.061 132.887 C 128.860 132.980,129.130 133.250,129.222 134.048 M210.752 141.059 C 206.990 161.343,206.308 164.453,205.625 164.453 C 204.920 164.453,204.848 165.065,206.609 156.055 C 207.448 151.758,208.682 145.166,209.352 141.406 C 210.663 134.036,211.123 132.451,211.761 133.089 C 212.028 133.356,211.700 135.946,210.752 141.059 M189.237 133.691 C 189.319 133.960,189.945 137.168,190.627 140.820 C 191.310 144.473,192.555 150.884,193.395 155.068 C 195.058 163.353,195.178 164.453,194.415 164.453 C 193.957 164.453,192.993 159.906,187.970 134.082 C 187.785 133.130,188.954 132.769,189.237 133.691 M123.422 140.020 C 124.235 141.000,123.752 141.992,122.461 141.992 C 121.654 141.992,121.259 141.778,121.164 141.290 C 121.009 140.484,121.737 139.453,122.461 139.453 C 122.731 139.453,123.163 139.708,123.422 140.020 M279.058 140.067 C 279.317 140.741,278.692 142.188,278.143 142.188 C 276.840 142.188,275.973 140.563,276.823 139.714 C 277.319 139.218,278.824 139.456,279.058 140.067 M184.735 152.899 C 189.909 165.932,189.713 165.344,188.826 165.165 C 188.121 165.024,178.727 142.013,179.116 141.382 C 179.683 140.466,180.299 141.729,184.735 152.899 M221.096 141.504 C 221.098 142.048,212.308 164.312,211.728 165.231 C 211.480 165.624,211.232 165.685,210.966 165.419 C 210.456 164.909,219.889 141.016,220.600 141.016 C 220.871 141.016,221.095 141.235,221.096 141.504 M284.254 147.514 C 284.577 148.356,283.883 149.414,283.008 149.414 C 282.625 149.414,282.133 149.130,281.914 148.784 C 281.317 147.837,281.869 146.875,283.008 146.875 C 283.574 146.875,284.115 147.152,284.254 147.514 M118.238 147.905 C 118.562 148.747,117.868 149.805,116.992 149.805 C 116.609 149.805,116.117 149.521,115.898 149.174 C 115.302 148.228,115.853 147.266,116.992 147.266 C 117.559 147.266,118.100 147.543,118.238 147.905 M173.968 151.855 C 180.207 161.608,182.422 165.205,182.422 165.583 C 182.422 166.651,181.327 165.822,180.022 163.766 C 179.240 162.533,176.991 158.989,175.026 155.891 C 171.948 151.040,171.140 149.219,172.066 149.219 C 172.184 149.219,173.040 150.405,173.968 151.855 M228.125 150.131 C 228.125 150.545,218.363 166.906,217.731 167.552 C 217.640 167.645,217.376 167.533,217.146 167.302 C 216.847 167.003,218.149 164.556,221.670 158.797 C 224.389 154.349,226.709 150.463,226.825 150.160 C 227.094 149.461,228.125 149.437,228.125 150.131 M288.399 155.123 C 288.985 156.053,288.444 157.031,287.343 157.031 C 286.206 157.031,285.621 155.735,286.358 154.847 C 286.944 154.141,287.859 154.265,288.399 155.123 M113.656 155.255 C 114.470 156.235,113.986 157.227,112.695 157.227 C 111.888 157.227,111.493 157.012,111.399 156.524 C 111.244 155.719,111.972 154.688,112.695 154.688 C 112.965 154.688,113.397 154.943,113.656 155.255 M235.156 156.290 C 235.156 156.650,232.444 159.945,226.027 167.383 C 224.544 169.102,223.179 170.675,222.993 170.879 C 222.782 171.111,222.491 171.084,222.213 170.807 C 221.883 170.477,222.904 169.040,226.227 165.162 C 228.679 162.302,231.535 158.952,232.574 157.719 C 234.276 155.699,235.156 155.212,235.156 156.290 M169.922 160.340 C 173.485 164.603,174.368 166.016,173.467 166.016 C 173.064 166.016,165.174 156.998,164.909 156.235 C 164.336 154.584,166.791 156.594,169.922 160.340 M164.436 166.565 C 169.027 171.103,169.653 171.889,168.652 171.862 C 167.838 171.839,158.483 162.604,158.783 162.119 C 159.204 161.437,159.419 161.606,164.436 166.565 M241.721 162.683 C 241.655 162.959,239.229 165.253,236.328 167.782 C 233.428 170.311,230.318 173.058,229.417 173.886 C 227.846 175.330,226.327 175.900,226.653 174.924 C 226.896 174.196,241.172 161.785,241.526 161.995 C 241.699 162.098,241.786 162.408,241.721 162.683 M292.172 163.067 C 292.985 164.047,292.502 165.039,291.211 165.039 C 290.404 165.039,290.009 164.825,289.914 164.337 C 289.759 163.531,290.487 162.500,291.211 162.500 C 291.481 162.500,291.913 162.755,292.172 163.067 M110.183 163.509 C 110.877 164.345,110.179 165.430,108.947 165.430 C 107.991 165.430,107.546 164.538,107.963 163.454 C 108.250 162.704,109.542 162.737,110.183 163.509 M248.910 169.183 C 247.749 170.206,230.376 181.287,230.203 181.114 C 229.604 180.516,231.089 179.357,239.484 173.875 C 246.081 169.567,248.654 168.078,248.878 168.440 C 249.048 168.714,249.062 169.049,248.910 169.183 M160.403 173.730 C 167.890 178.560,169.769 180.078,168.255 180.078 C 167.387 180.078,151.763 169.665,151.632 168.999 C 151.428 167.969,151.683 168.106,160.403 173.730 M208.008 172.011 C 224.908 176.443,231.962 190.455,226.128 208.008 C 221.147 222.997,211.407 227.648,187.137 226.625 C 180.999 226.367,175.493 226.159,174.902 226.164 C 173.873 226.172,173.828 226.091,173.828 224.219 C 173.828 222.332,173.866 222.266,174.942 222.266 C 179.178 222.266,178.967 223.590,178.826 197.963 C 178.697 174.474,178.889 175.914,175.835 175.505 C 174.220 175.288,174.219 175.286,174.219 173.581 C 174.219 172.497,174.397 171.861,174.707 171.836 C 174.976 171.815,178.096 171.567,181.641 171.285 C 192.142 170.450,203.218 170.754,208.008 172.011 M294.304 171.331 C 295.522 171.798,294.890 174.219,293.551 174.219 C 293.270 174.219,292.188 172.977,292.188 172.656 C 292.188 172.335,293.270 171.094,293.551 171.094 C 293.625 171.094,293.964 171.200,294.304 171.331 M107.357 172.604 C 107.523 173.777,106.942 174.367,105.935 174.047 C 104.935 173.730,104.540 172.719,105.135 172.002 C 105.839 171.154,107.204 171.524,107.357 172.604 M156.250 180.819 C 164.094 184.135,168.207 186.070,168.290 186.483 C 168.462 187.332,168.056 187.278,165.381 186.093 C 164.119 185.534,158.867 183.320,153.711 181.173 C 148.555 179.026,144.184 177.125,143.999 176.950 C 143.732 176.697,143.938 175.779,144.261 175.782 C 144.302 175.782,149.697 178.049,156.250 180.819 M194.531 176.073 C 193.135 176.125,191.421 176.265,190.723 176.383 L 189.453 176.598 189.453 198.624 C 189.453 219.378,189.493 220.663,190.147 220.871 C 192.150 221.506,197.111 221.826,199.761 221.490 C 211.124 220.049,216.898 212.470,216.879 199.023 C 216.857 183.484,209.104 175.521,194.531 176.073 M255.857 176.660 C 255.856 177.070,234.593 186.417,232.813 186.791 C 232.490 186.859,232.227 186.659,232.227 186.348 C 232.227 185.778,253.748 176.263,255.176 176.202 C 255.552 176.185,255.858 176.392,255.857 176.660 M105.015 180.421 C 105.302 180.603,105.478 181.172,105.405 181.685 C 105.224 182.968,103.313 183.238,102.931 182.035 C 102.488 180.638,103.779 179.638,105.015 180.421 M296.888 180.884 C 297.436 181.908,296.715 182.902,295.546 182.734 C 294.709 182.613,294.302 181.629,294.681 180.641 C 295.002 179.806,296.393 179.959,296.888 180.884 M264.063 186.076 C 264.063 186.733,233.598 193.130,233.055 192.586 C 232.272 191.803,231.042 192.115,252.344 187.692 C 258.252 186.465,263.154 185.398,263.238 185.320 C 263.507 185.068,264.063 185.577,264.063 186.076 M150.468 188.305 C 157.623 189.822,164.496 191.248,165.743 191.475 C 167.512 191.797,167.980 192.027,167.877 192.526 C 167.714 193.313,169.025 193.521,153.711 190.280 C 146.621 188.780,139.722 187.342,138.379 187.085 C 136.800 186.782,135.938 186.428,135.938 186.082 C 135.938 185.261,136.553 185.355,150.468 188.305 M104.102 190.430 C 104.102 191.405,103.945 191.602,103.168 191.602 C 101.917 191.602,101.232 190.518,101.942 189.662 C 102.821 188.603,104.102 189.058,104.102 190.430 M298.363 190.298 C 298.511 191.584,297.132 192.221,296.205 191.295 C 295.279 190.368,295.916 188.989,297.202 189.137 C 298.000 189.230,298.270 189.500,298.363 190.298 M298.605 198.270 C 299.305 198.970,299.299 198.946,298.982 199.773 C 298.841 200.139,298.285 200.391,297.614 200.391 C 295.896 200.391,295.999 197.888,297.726 197.687 C 297.872 197.670,298.267 197.932,298.605 198.270 M103.785 198.686 C 104.109 199.528,103.415 200.586,102.539 200.586 C 102.156 200.586,101.664 200.302,101.445 199.955 C 100.848 199.009,101.400 198.047,102.539 198.047 C 103.106 198.047,103.647 198.324,103.785 198.686 M167.969 198.633 C 167.969 199.146,165.473 199.219,147.852 199.219 C 130.230 199.219,127.734 199.146,127.734 198.633 C 127.734 198.120,130.230 198.047,147.852 198.047 C 165.473 198.047,167.969 198.120,167.969 198.633 M272.949 198.535 C 272.681 199.340,233.203 199.440,233.203 198.636 C 233.203 198.118,235.627 198.047,253.158 198.047 C 268.947 198.047,273.078 198.149,272.949 198.535 M168.126 205.273 C 168.084 205.708,136.325 212.934,135.822 212.624 C 134.751 211.962,137.360 211.182,150.812 208.146 C 165.152 204.909,168.211 204.402,168.126 205.273 M247.852 207.830 C 255.801 209.556,262.788 211.072,263.379 211.197 C 264.485 211.433,264.899 212.500,263.885 212.500 C 263.435 212.500,237.323 206.926,233.691 206.055 C 232.900 205.866,232.394 204.685,233.105 204.689 C 233.267 204.690,239.902 206.103,247.852 207.830 M103.891 207.394 C 104.455 208.448,103.992 209.375,102.902 209.375 C 101.645 209.375,100.963 208.077,101.786 207.254 C 102.611 206.429,103.403 206.481,103.891 207.394 M298.363 208.267 C 298.511 209.552,297.132 210.190,296.205 209.263 C 295.279 208.337,295.916 206.958,297.202 207.106 C 298.000 207.199,298.270 207.469,298.363 208.267 M168.145 211.677 C 167.940 211.869,165.225 213.085,162.109 214.379 C 145.797 221.154,144.809 221.528,144.380 221.099 C 143.838 220.556,144.315 220.243,147.656 218.946 C 149.053 218.403,154.150 216.306,158.984 214.285 C 166.759 211.034,169.726 210.189,168.145 211.677 M243.366 215.455 C 249.700 217.940,255.057 220.145,255.270 220.354 C 257.072 222.129,250.263 219.834,234.668 213.410 C 232.732 212.613,231.250 211.772,231.250 211.470 C 231.250 210.684,230.946 210.584,243.366 215.455 M105.105 216.244 C 105.799 217.080,105.101 218.164,103.869 218.164 C 102.913 218.164,102.468 217.272,102.884 216.188 C 103.172 215.439,104.464 215.471,105.105 216.244 M297.145 216.264 C 297.468 217.106,296.774 218.164,295.898 218.164 C 295.516 218.164,295.023 217.880,294.805 217.534 C 294.208 216.587,294.759 215.625,295.898 215.625 C 296.465 215.625,297.006 215.902,297.145 216.264 M239.567 222.852 C 247.833 228.086,249.909 229.703,248.340 229.681 C 247.595 229.670,229.191 217.848,228.993 217.252 C 228.617 216.125,230.624 217.187,239.567 222.852 M168.290 218.153 C 168.168 218.708,152.505 229.688,151.835 229.688 C 150.457 229.688,152.890 227.622,159.732 222.984 C 167.780 217.528,168.519 217.110,168.290 218.153 M234.233 228.674 C 241.118 234.844,242.741 236.595,241.273 236.266 C 240.392 236.069,225.796 222.938,225.788 222.335 C 225.774 221.278,227.038 222.227,234.233 228.674 M107.240 225.022 C 107.701 225.767,107.056 227.344,106.290 227.344 C 105.285 227.344,104.573 226.368,104.877 225.409 C 105.149 224.552,106.784 224.284,107.240 225.022 M295.234 225.078 C 295.852 225.696,295.826 225.993,295.089 226.730 C 293.954 227.866,292.239 226.753,292.983 225.363 C 293.438 224.513,294.531 224.375,295.234 225.078 M229.075 233.764 C 234.766 240.440,236.521 242.968,235.147 242.510 C 234.637 242.340,221.484 226.919,221.484 226.491 C 221.484 225.275,223.420 227.129,229.075 233.764 M166.390 229.526 C 162.357 233.643,158.966 236.466,158.551 236.051 C 158.288 235.788,159.736 234.156,162.939 231.104 C 166.208 227.989,167.847 226.675,168.121 226.949 C 168.395 227.223,167.848 228.038,166.390 229.526 M218.900 231.743 C 228.843 247.712,229.447 248.828,228.150 248.828 C 227.974 248.828,226.810 247.114,225.562 245.020 C 224.315 242.925,221.673 238.631,219.691 235.478 C 217.710 232.325,216.189 229.644,216.313 229.521 C 216.879 228.955,217.493 229.482,218.900 231.743 M181.103 233.737 C 175.169 243.839,171.484 249.114,171.484 247.508 C 171.484 246.326,180.874 231.671,181.482 231.904 C 181.951 232.084,181.883 232.409,181.103 233.737 M216.267 243.060 C 221.241 255.696,221.424 256.250,220.621 256.250 C 220.177 256.250,214.119 241.617,210.698 232.285 C 210.494 231.728,210.596 231.593,211.141 231.699 C 211.672 231.801,212.959 234.654,216.267 243.060 M173.047 232.541 C 173.047 233.233,165.489 242.408,165.020 242.285 C 164.248 242.082,164.750 241.245,168.359 236.724 C 171.817 232.392,173.047 231.295,173.047 232.541 M189.063 232.917 C 189.063 233.189,187.338 237.891,185.230 243.366 C 183.123 248.841,181.087 254.155,180.706 255.176 C 180.025 256.999,179.577 257.410,179.104 256.644 C 178.972 256.432,180.826 251.202,183.222 245.023 C 185.619 238.844,187.671 233.481,187.781 233.105 C 188.011 232.324,189.063 232.169,189.063 232.917 M206.071 232.910 C 206.753 234.693,212.001 263.929,211.695 264.238 C 210.995 264.946,210.657 263.865,209.382 256.836 C 208.680 252.969,207.365 245.983,206.459 241.312 C 205.553 236.641,204.901 232.730,205.010 232.620 C 205.362 232.268,205.879 232.409,206.071 232.910 M110.156 234.341 C 110.156 235.414,109.070 236.183,108.268 235.678 C 107.343 235.095,107.219 233.927,108.019 233.342 C 108.880 232.713,110.156 233.310,110.156 234.341 M200.586 252.376 C 200.586 269.274,200.513 271.680,200.000 271.680 C 199.419 271.680,198.852 234.725,199.410 233.268 C 200.403 230.679,200.586 233.660,200.586 252.376 M292.355 233.426 C 293.217 234.289,292.616 235.938,291.439 235.938 C 290.399 235.938,289.725 234.372,290.430 233.594 C 291.282 232.652,291.557 232.628,292.355 233.426 M194.922 233.871 C 194.922 234.451,190.157 261.213,189.633 263.574 C 189.464 264.337,188.281 264.886,188.281 264.201 C 188.281 264.062,189.512 257.195,191.016 248.941 C 192.520 240.686,193.750 233.768,193.750 233.568 C 193.750 233.367,194.014 233.203,194.336 233.203 C 194.658 233.203,194.922 233.503,194.922 233.871 M113.551 242.045 C 113.874 242.887,113.180 243.945,112.305 243.945 C 111.922 243.945,111.430 243.662,111.211 243.315 C 110.614 242.369,111.166 241.406,112.305 241.406 C 112.871 241.406,113.412 241.684,113.551 242.045 M288.986 242.626 C 289.111 243.705,288.351 244.293,287.335 243.903 C 285.869 243.340,286.297 241.303,287.843 241.483 C 288.619 241.573,288.896 241.849,288.986 242.626 M117.355 249.833 C 118.758 251.236,117.030 253.029,115.558 251.697 C 114.598 250.828,115.149 249.219,116.406 249.219 C 116.590 249.219,117.017 249.495,117.355 249.833 M284.148 249.456 C 285.507 249.977,284.411 252.168,282.933 251.883 C 282.076 251.718,281.801 250.553,282.437 249.786 C 282.958 249.159,283.235 249.105,284.148 249.456 M122.433 257.254 C 123.649 258.470,122.388 260.202,120.972 259.261 C 119.881 258.537,119.764 258.026,120.518 257.272 C 121.307 256.483,121.659 256.480,122.433 257.254 M279.492 258.008 C 279.492 258.983,279.336 259.180,278.558 259.180 C 277.308 259.180,276.622 258.096,277.332 257.240 C 278.212 256.181,279.492 256.636,279.492 258.008 M127.902 264.286 C 129.077 265.461,127.690 267.424,126.339 266.498 C 125.568 265.970,125.413 264.878,126.021 264.269 C 126.775 263.515,127.134 263.518,127.902 264.286 M273.855 264.291 C 274.228 264.739,274.256 265.088,273.959 265.560 C 273.376 266.485,272.209 266.610,271.623 265.809 C 270.539 264.326,272.678 262.871,273.855 264.291 M134.297 270.391 C 135.476 271.570,134.278 273.441,132.837 272.670 C 131.852 272.142,131.786 270.885,132.715 270.344 C 133.602 269.827,133.737 269.831,134.297 270.391 M267.109 270.391 C 268.052 271.333,267.469 273.047,266.207 273.047 C 265.927 273.047,264.844 271.806,264.844 271.484 C 264.844 270.425,266.395 269.676,267.109 270.391 M141.183 276.395 C 142.419 277.631,140.956 279.601,139.623 278.495 C 138.650 277.687,139.192 276.016,140.499 275.793 C 140.538 275.787,140.845 276.057,141.183 276.395 M260.182 276.186 C 261.128 276.692,261.163 277.977,260.244 278.469 C 258.799 279.242,257.506 277.416,258.672 276.250 C 259.240 275.682,259.240 275.682,260.182 276.186 M148.605 281.473 C 149.480 282.348,148.861 283.984,147.656 283.984 C 147.222 283.984,146.094 282.856,146.094 282.422 C 146.094 281.988,147.222 280.859,147.656 280.859 C 147.840 280.859,148.267 281.136,148.605 281.473 M253.320 282.379 C 253.320 283.692,252.165 284.363,251.334 283.533 C 250.362 282.560,250.956 281.172,252.280 281.325 C 253.083 281.418,253.320 281.658,253.320 282.379 M156.401 285.753 C 157.093 286.446,156.855 287.358,155.841 287.901 C 154.437 288.652,153.214 286.380,154.590 285.578 C 155.513 285.040,155.706 285.059,156.401 285.753 M245.480 285.770 C 246.786 287.076,245.380 288.763,243.724 287.877 C 242.580 287.265,243.206 285.156,244.531 285.156 C 244.715 285.156,245.142 285.432,245.480 285.770 M164.769 290.298 C 164.859 291.074,164.680 291.406,164.066 291.600 C 163.109 291.904,162.109 291.216,162.109 290.252 C 162.109 288.590,164.576 288.633,164.769 290.298 M237.709 289.887 C 237.872 290.401,237.751 290.932,237.388 291.295 C 236.565 292.118,235.156 291.596,235.156 290.468 C 235.156 288.843,237.228 288.372,237.709 289.887 M173.074 292.416 C 173.759 293.241,173.076 294.336,171.875 294.336 C 170.674 294.336,169.991 293.241,170.676 292.416 C 170.958 292.075,171.498 291.797,171.875 291.797 C 172.252 291.797,172.792 292.075,173.074 292.416 M229.282 292.550 C 229.840 293.592,229.387 294.531,228.326 294.531 C 227.051 294.531,226.396 293.620,226.940 292.603 C 227.483 291.589,228.752 291.560,229.282 292.550 M181.417 294.364 C 182.292 295.239,181.674 296.875,180.469 296.875 C 180.035 296.875,178.906 295.746,178.906 295.313 C 178.906 294.879,180.035 293.750,180.469 293.750 C 180.653 293.750,181.080 294.026,181.417 294.364 M220.480 294.364 C 220.818 294.701,221.094 295.128,221.094 295.313 C 221.094 295.497,220.818 295.924,220.480 296.261 C 220.142 296.599,219.715 296.875,219.531 296.875 C 219.347 296.875,218.920 296.599,218.583 296.261 C 218.245 295.924,217.969 295.497,217.969 295.313 C 217.969 295.128,218.245 294.701,218.583 294.364 C 218.920 294.026,219.347 293.750,219.531 293.750 C 219.715 293.750,220.142 294.026,220.480 294.364 M190.430 296.680 C 190.430 298.021,188.899 298.386,188.164 297.221 C 187.514 296.191,188.128 295.243,189.353 295.384 C 190.261 295.488,190.430 295.691,190.430 296.680 M211.703 295.880 C 212.517 296.860,212.033 297.852,210.742 297.852 C 209.550 297.852,209.067 297.068,209.525 295.876 C 209.804 295.148,211.098 295.150,211.703 295.880 M198.749 296.714 C 198.913 297.856,197.854 298.697,197.070 298.047 C 196.455 297.536,196.291 296.418,196.761 295.947 C 197.313 295.396,198.634 295.905,198.749 296.714 M202.930 297.070 C 202.930 298.111,202.799 298.242,201.763 298.242 C 200.457 298.242,199.983 297.250,200.812 296.251 C 201.656 295.235,202.930 295.728,202.930 297.070 " stroke="none" fill="#040404" fill-rule="evenodd"></path><path id="path2" d="M123.218 126.270 L 122.070 127.539 123.340 126.392 C 124.523 125.322,124.789 125.000,124.487 125.000 C 124.420 125.000,123.849 125.571,123.218 126.270 M199.399 145.703 C 199.399 155.908,199.450 160.083,199.511 154.980 C 199.573 149.878,199.573 141.528,199.511 136.426 C 199.450 131.323,199.399 135.498,199.399 145.703 M163.086 152.344 C 160.515 154.922,158.499 157.031,158.606 157.031 C 158.713 157.031,160.905 154.922,163.477 152.344 C 166.048 149.766,168.064 147.656,167.957 147.656 C 167.849 147.656,165.657 149.766,163.086 152.344 M142.182 169.434 L 136.523 175.195 142.285 169.536 C 147.638 164.279,148.224 163.672,147.944 163.672 C 147.888 163.672,145.295 166.265,142.182 169.434 M174.317 173.242 C 174.322 174.102,174.402 174.407,174.495 173.921 C 174.588 173.435,174.585 172.732,174.487 172.359 C 174.389 171.985,174.313 172.383,174.317 173.242 M189.225 183.789 C 189.226 187.871,189.284 189.488,189.354 187.382 C 189.424 185.276,189.424 181.936,189.353 179.960 C 189.283 177.984,189.225 179.707,189.225 183.789 M189.191 200.586 C 189.192 202.090,189.263 202.657,189.348 201.847 C 189.432 201.036,189.431 199.806,189.344 199.112 C 189.258 198.419,189.189 199.082,189.191 200.586 M273.629 213.379 L 266.602 220.508 273.730 213.481 C 277.651 209.616,280.859 206.408,280.859 206.352 C 280.859 206.074,280.158 206.756,273.629 213.379 M199.400 252.344 C 199.400 262.764,199.450 267.026,199.511 261.816 C 199.573 256.606,199.573 248.081,199.511 242.871 C 199.450 237.661,199.400 241.924,199.400 252.344 M233.390 249.707 L 229.883 253.320 233.496 249.813 C 236.852 246.555,237.287 246.094,237.004 246.094 C 236.945 246.094,235.319 247.720,233.390 249.707 M198.722 309.266 C 199.415 309.353,200.646 309.354,201.456 309.269 C 202.267 309.185,201.699 309.114,200.195 309.113 C 198.691 309.111,198.028 309.180,198.722 309.266 " stroke="none" fill="#235e39" fill-rule="evenodd"></path><path id="path3" d="M155.270 156.348 L 147.852 163.867 155.371 156.449 C 162.358 149.557,163.067 148.828,162.789 148.828 C 162.733 148.828,159.349 152.212,155.270 156.348 M152.729 162.793 L 147.070 168.555 152.832 162.896 C 158.185 157.639,158.771 157.031,158.491 157.031 C 158.435 157.031,155.842 159.624,152.729 162.793 M179.087 200.000 C 179.087 210.420,179.137 214.683,179.199 209.473 C 179.260 204.263,179.260 195.737,179.199 190.527 C 179.137 185.317,179.087 189.580,179.087 200.000 M189.169 195.313 C 189.169 196.279,189.245 196.675,189.338 196.191 C 189.431 195.708,189.431 194.917,189.338 194.434 C 189.245 193.950,189.169 194.346,189.169 195.313 M93.500 200.000 C 93.500 202.041,93.566 202.876,93.646 201.855 C 93.727 200.835,93.727 199.165,93.646 198.145 C 93.566 197.124,93.500 197.959,93.500 200.000 M90.761 200.000 C 90.761 201.826,90.829 202.573,90.911 201.660 C 90.993 200.747,90.993 199.253,90.911 198.340 C 90.829 197.427,90.761 198.174,90.761 200.000 M189.218 210.938 C 189.218 214.053,189.278 215.327,189.353 213.770 C 189.427 212.212,189.427 209.663,189.353 208.105 C 189.278 206.548,189.218 207.822,189.218 210.938 M255.856 231.152 L 246.680 240.430 255.957 231.253 C 264.578 222.726,265.410 221.875,265.134 221.875 C 265.078 221.875,260.903 226.050,255.856 231.152 M193.848 226.850 C 194.868 226.930,196.538 226.930,197.559 226.850 C 198.579 226.769,197.744 226.703,195.703 226.703 C 193.662 226.703,192.827 226.769,193.848 226.850 M242.182 240.918 L 236.914 246.289 242.285 241.021 C 247.275 236.127,247.833 235.547,247.553 235.547 C 247.496 235.547,245.079 237.964,242.182 240.918 " stroke="none" fill="#387c5c" fill-rule="evenodd"></path><path id="path4" d="M277.148 122.266 C 278.424 123.555,279.556 124.609,279.663 124.609 C 279.770 124.609,278.815 123.555,277.539 122.266 C 276.263 120.977,275.132 119.922,275.024 119.922 C 274.917 119.922,275.873 120.977,277.148 122.266 M200.571 145.508 C 200.571 155.391,200.621 159.378,200.683 154.368 C 200.745 149.358,200.745 141.272,200.683 136.399 C 200.621 131.526,200.571 135.625,200.571 145.508 M174.210 141.309 L 170.898 144.727 174.316 141.415 C 177.491 138.339,177.912 137.891,177.628 137.891 C 177.570 137.891,176.032 139.429,174.210 141.309 M247.266 163.086 C 255.105 170.928,261.607 177.344,261.715 177.344 C 261.822 177.344,255.496 170.928,247.656 163.086 C 239.817 155.244,233.315 148.828,233.207 148.828 C 233.100 148.828,239.426 155.244,247.266 163.086 M160.156 164.258 C 160.885 165.010,161.569 165.625,161.677 165.625 C 161.784 165.625,161.276 165.010,160.547 164.258 C 159.818 163.506,159.134 162.891,159.026 162.891 C 158.919 162.891,159.427 163.506,160.156 164.258 M130.664 180.859 C 127.447 184.082,124.902 186.719,125.010 186.719 C 125.117 186.719,127.837 184.082,131.055 180.859 C 134.272 177.637,136.816 175.000,136.709 175.000 C 136.602 175.000,133.881 177.637,130.664 180.859 M195.020 176.051 C 195.396 176.149,196.011 176.149,196.387 176.051 C 196.763 175.952,196.455 175.872,195.703 175.872 C 194.951 175.872,194.644 175.952,195.020 176.051 M273.031 188.770 C 273.988 189.790,274.823 190.625,274.886 190.625 C 275.179 190.625,274.869 190.274,273.145 188.656 L 271.289 186.914 273.031 188.770 M119.702 191.895 L 118.555 193.164 119.824 192.017 C 121.008 190.947,121.273 190.625,120.972 190.625 C 120.904 190.625,120.333 191.196,119.702 191.895 M280.078 195.898 C 281.895 197.725,283.469 199.219,283.577 199.219 C 283.684 199.219,282.285 197.725,280.469 195.898 C 278.652 194.072,277.078 192.578,276.970 192.578 C 276.863 192.578,278.261 194.072,280.078 195.898 M115.029 196.582 L 112.305 199.414 115.137 196.690 C 117.767 194.160,118.147 193.750,117.861 193.750 C 117.801 193.750,116.527 195.024,115.029 196.582 M284.190 202.731 L 280.684 206.445 284.368 202.847 C 286.393 200.868,287.971 199.197,287.873 199.133 C 287.775 199.069,286.118 200.689,284.190 202.731 M200.572 252.344 C 200.572 262.979,200.622 267.329,200.683 262.012 C 200.745 256.694,200.745 247.993,200.683 242.676 C 200.622 237.358,200.572 241.709,200.572 252.344 M225.774 257.324 L 221.680 261.523 225.879 257.429 C 228.188 255.177,230.078 253.287,230.078 253.230 C 230.078 252.948,229.577 253.424,225.774 257.324 M203.223 309.254 C 203.599 309.352,204.214 309.352,204.590 309.254 C 204.966 309.155,204.658 309.075,203.906 309.075 C 203.154 309.075,202.847 309.155,203.223 309.254 " stroke="none" fill="#0c2d12" fill-rule="evenodd"></path></g></svg>