<?xml version="1.0" standalone="no"?>
<!DOCTYPE svg PUBLIC "-//W3C//DTD SVG 20010904//EN"
 "http://www.w3.org/TR/2001/REC-SVG-20010904/DTD/svg10.dtd">
<svg version="1.0" xmlns="http://www.w3.org/2000/svg"
 width="200.000000pt" height="200.000000pt" viewBox="0 0 200.000000 200.000000"
 preserveAspectRatio="xMidYMid meet">

<g transform="translate(0.000000,200.000000) scale(0.100000,-0.100000)"
fill="#000000" stroke="none">
<path d="M0 1000 l0 -1000 1000 0 1000 0 0 1000 0 1000 -1000 0 -1000 0 0
-1000z m1053 823 c-29 -2 -78 -2 -110 0 -32 2 -8 3 52 3 61 0 87 -1 58 -3z
m-248 -24 c-237 -58 -435 -221 -545 -449 -23 -47 -38 -74 -34 -60 12 48 85
177 132 235 67 84 168 166 265 215 85 43 193 79 237 79 14 0 -11 -9 -55 -20z
m400 6 c52 -17 35 -17 -40 0 -37 8 -49 13 -30 13 17 0 48 -5 70 -13z m-157
-22 c-26 -2 -71 -2 -100 0 -29 2 -8 3 47 3 55 0 79 -1 53 -3z m312 -35 c136
-68 240 -158 320 -274 32 -45 90 -157 90 -170 -1 -5 -17 23 -36 61 -91 179
-232 312 -414 392 -41 18 -68 33 -60 33 9 0 54 -19 100 -42z m-487 25 c-7 -2
-19 -2 -25 0 -7 3 -2 5 12 5 14 0 19 -2 13 -5z m280 0 c-7 -2 -21 -2 -30 0
-10 3 -4 5 12 5 17 0 24 -2 18 -5z m-326 -9 c-3 -3 -12 -4 -19 -1 -8 3 -5 6 6
6 11 1 17 -2 13 -5z m370 0 c-3 -3 -12 -4 -19 -1 -8 3 -5 6 6 6 11 1 17 -2 13
-5z m-437 -19 c-46 -18 -64 -17 -25 0 17 8 37 14 45 14 8 0 -1 -7 -20 -14z
m505 0 c39 -17 21 -18 -25 0 -19 7 -28 14 -20 14 8 0 29 -6 45 -14z m-621 -49
c-128 -68 -222 -154 -298 -271 -26 -38 -46 -66 -46 -62 0 5 16 33 36 64 44 68
131 162 196 210 54 39 148 93 163 93 6 0 -18 -15 -51 -34z m706 14 c22 -11 40
-23 40 -25 0 -5 -79 32 -89 41 -11 10 14 2 49 -16z m-386 -52 c8 -14 6 -21 -9
-35 -14 -14 -16 -14 -7 -2 15 20 6 49 -15 49 -11 0 -14 -8 -11 -30 3 -16 1
-30 -4 -30 -4 0 -8 16 -8 36 0 31 3 35 21 32 12 -2 27 -11 33 -20z m80 7 c-4
-8 -1 -15 5 -15 6 0 11 7 11 16 0 8 5 12 10 9 8 -5 8 -11 0 -20 -6 -7 -8 -21
-4 -31 5 -17 5 -17 -7 1 -12 19 -12 19 -20 0 -6 -15 -8 -11 -8 18 -1 20 3 37
9 37 5 0 7 -7 4 -15z m511 -110 c49 -49 100 -109 113 -132 31 -57 21 -55 -13
2 -36 62 -134 165 -200 210 -61 43 -72 56 -23 28 18 -10 73 -58 123 -108z
m-438 80 c-1 -19 -5 -35 -9 -35 -9 0 -10 17 -2 48 9 33 14 27 11 -13z m-261
10 c10 -10 11 -15 4 -15 -7 0 -10 -7 -6 -15 3 -8 2 -15 -3 -15 -5 0 -11 14
-13 30 -5 34 -3 36 18 15z m349 5 c3 -6 -1 -7 -9 -4 -17 7 -22 -11 -6 -21 6
-3 10 -14 10 -23 -1 -11 -6 -8 -16 11 -14 27 -12 47 6 47 5 0 12 -4 15 -10z
m-410 -32 c-4 -18 -11 -37 -17 -43 -6 -6 -7 1 -2 20 4 16 7 35 7 42 0 7 4 13
9 13 5 0 7 -15 3 -32z m492 -4 c13 -33 -35 -70 -59 -46 -6 6 -8 22 -4 36 5 19
13 26 32 26 14 0 27 -7 31 -16z m-548 -20 c17 -38 6 -41 -12 -5 -9 17 -12 31
-8 31 4 0 13 -12 20 -26z m583 -16 c-18 -18 -15 -48 6 -49 11 0 12 -2 4 -6 -7
-3 -19 0 -27 7 -13 10 -12 16 1 42 9 16 18 27 22 24 3 -4 0 -12 -6 -18z m-639
-18 c10 -16 15 -30 10 -30 -4 0 -16 14 -25 30 -9 17 -14 30 -10 30 4 0 16 -13
25 -30z m673 -8 c-18 -16 -18 -16 -6 6 6 13 14 21 18 18 3 -4 -2 -14 -12 -24z
m-706 -22 l25 -20 -25 3 c-18 1 -24 -2 -22 -13 3 -12 1 -13 -10 -2 -11 11 -10
14 1 21 11 7 10 11 -5 20 -14 8 -15 10 -4 10 8 1 26 -8 40 -19z m769 6 c9 -11
9 -16 0 -22 -7 -4 -9 -3 -5 4 14 24 -14 20 -33 -4 -24 -31 -29 -19 -5 14 18
26 27 27 43 8z m-154 -256 l260 -260 -263 -263 -262 -262 -262 262 -263 263
260 260 c143 143 262 260 265 260 3 0 122 -117 265 -260z m-695 219 c0 -7 8
-18 18 -26 15 -13 15 -13 -8 -7 -22 6 -23 5 -11 -10 8 -10 9 -16 2 -16 -15 0
-44 47 -36 60 8 14 35 13 35 -1z m821 -22 c-8 -8 -11 -7 -11 4 0 9 3 19 7 23
4 4 9 2 11 -4 3 -7 -1 -17 -7 -23z m87 11 c7 -7 12 -17 12 -22 0 -6 -5 -3 -11
7 -13 22 -36 22 -48 -1 -7 -13 -6 -23 2 -32 10 -12 9 -12 -5 -1 -10 7 -15 18
-11 25 21 38 40 45 61 24z m-958 -62 l25 -30 -28 17 c-15 10 -32 15 -38 11 -7
-4 -7 2 1 16 6 12 12 20 13 18 1 -1 13 -16 27 -32z m1006 2 c10 -13 12 -17 4
-10 -8 6 -18 12 -23 12 -5 0 -7 -6 -4 -12 3 -8 -5 -14 -21 -15 l-24 -1 23 23
c13 13 24 24 25 24 0 1 9 -9 20 -21z m-1032 -56 c3 -5 -10 -14 -29 -19 -19 -6
-37 -8 -40 -3 -2 4 10 10 27 14 30 6 31 7 12 22 -18 15 -18 15 3 4 12 -5 24
-14 27 -18z m1214 -27 c-3 -3 -9 2 -12 12 -6 14 -5 15 5 6 7 -7 10 -15 7 -18z
m-108 -29 c0 -6 -4 -5 -9 3 -7 11 -13 10 -35 -4 -14 -10 -26 -13 -26 -8 0 5
12 15 26 21 15 7 23 17 19 25 -4 6 1 3 9 -7 9 -11 16 -25 16 -30z m-1125 6
c-3 -3 -11 0 -18 7 -9 10 -8 11 6 5 10 -3 15 -9 12 -12z m-66 -9 c-3 -20 2
-26 11 -13 8 13 10 12 10 -4 0 -12 5 -16 14 -13 10 4 13 1 10 -7 -4 -11 -10
-11 -35 1 -29 14 -35 24 -22 36 8 9 13 9 12 0z m-138 -30 c-12 -20 -14 -14 -5
12 4 9 9 14 11 11 3 -2 0 -13 -6 -23z m1469 -8 c0 -5 -5 -3 -10 5 -5 8 -10 20
-10 25 0 6 5 3 10 -5 5 -8 10 -19 10 -25z m-119 -1 c17 -21 0 -49 -32 -49 -27
0 -37 28 -19 50 16 19 34 19 51 -1z m-1248 -34 c-7 -25 22 -38 48 -22 15 9 17
9 13 -2 -8 -20 -25 -25 -51 -15 -22 8 -31 38 -16 52 10 11 11 8 6 -13z m-169
-49 c-4 -17 -9 -30 -11 -27 -3 2 -2 19 2 36 9 41 17 33 9 -9z m43 17 c-3 -8
-6 -5 -6 6 -1 11 2 17 5 13 3 -3 4 -12 1 -19z m1510 0 c-3 -8 -6 -5 -6 6 -1
11 2 17 5 13 3 -3 4 -12 1 -19z m40 0 c-3 -8 -6 -5 -6 6 -1 11 2 17 5 13 3 -3
4 -12 1 -19z m-157 -18 c-13 -8 -12 -10 3 -10 9 0 17 -4 17 -10 0 -5 -7 -7
-15 -3 -9 3 -26 -3 -38 -13 -22 -19 -22 -19 -4 2 22 27 22 33 -3 27 -11 -3
-20 -3 -20 1 0 7 63 24 70 19 2 -2 -2 -8 -10 -13z m-1403 -22 c-3 -8 -6 -5 -6
6 -1 11 2 17 5 13 3 -3 4 -12 1 -19z m1530 0 c-3 -8 -6 -5 -6 6 -1 11 2 17 5
13 3 -3 4 -12 1 -19z m52 -52 c2 -45 -6 -27 -12 29 -4 34 -3 42 3 25 4 -14 8
-38 9 -54z m-1458 34 c5 0 9 6 9 13 0 6 6 3 12 -8 11 -19 11 -19 19 0 6 16 8
17 8 3 1 -22 -9 -27 -42 -21 -20 4 -27 11 -26 27 1 17 2 17 6 4 2 -10 9 -18
14 -18z m-174 -37 c-3 -10 -5 -4 -5 12 0 17 2 24 5 18 2 -7 2 -21 0 -30z m40
0 c-3 -10 -5 -4 -5 12 0 17 2 24 5 18 2 -7 2 -21 0 -30z m1550 5 c-3 -7 -5 -2
-5 12 0 14 2 19 5 13 2 -7 2 -19 0 -25z m-117 -5 c-8 -3 -18 -11 -22 -17 -5
-7 -8 -7 -8 3 0 7 -6 11 -15 7 -8 -3 -15 -1 -15 4 0 6 17 10 38 9 20 0 30 -3
22 -6z m-1273 -23 c4 -12 3 -13 -5 -1 -6 8 -19 12 -31 8 -12 -3 -19 -1 -15 5
9 14 47 5 51 -12z m-170 -132 c-2 -24 -4 -5 -4 42 0 47 2 66 4 43 2 -24 2 -62
0 -85z m159 106 c8 3 14 1 14 -4 0 -11 -30 -13 -54 -4 -9 3 -16 10 -16 15 0 6
9 5 21 -1 11 -7 27 -9 35 -6z m1411 -96 c-2 -24 -4 -7 -4 37 0 44 2 63 4 43 2
-21 2 -57 0 -80z m-1610 -5 c-2 -21 -4 -4 -4 37 0 41 2 58 4 38 2 -21 2 -55 0
-75z m1650 10 c-2 -21 -4 -6 -4 32 0 39 2 55 4 38 2 -18 2 -50 0 -70z m-166
63 l-23 -24 24 -5 c17 -3 14 -5 -11 -6 l-34 -1 22 24 23 24 -28 5 c-24 3 -22
4 10 6 l39 1 -22 -24z m156 -163 c-3 -10 -5 -2 -5 17 0 19 2 27 5 18 2 -10 2
-26 0 -35z m-1630 -10 c-3 -10 -5 -2 -5 17 0 19 2 27 5 18 2 -10 2 -26 0 -35z
m1590 10 c-3 -10 -5 -4 -5 12 0 17 2 24 5 18 2 -7 2 -21 0 -30z m-1550 -5 c-3
-7 -5 -2 -5 12 0 14 2 19 5 13 2 -7 2 -19 0 -25z m166 5 c-7 -2 -13 -12 -14
-21 0 -11 -2 -12 -6 -4 -7 17 -21 15 -26 -5 -4 -14 -5 -13 -6 4 -1 15 6 23 22
26 31 6 44 6 30 0z m1243 -47 c-14 -6 -26 -13 -26 -18 0 -4 -4 -8 -10 -8 -18
0 -10 19 11 25 19 7 20 7 2 21 -16 12 -13 12 16 1 l34 -12 -27 -9z m171 -8
c-3 -7 -5 -2 -5 12 0 14 2 19 5 13 2 -7 2 -19 0 -25z m-1610 0 c-3 -8 -6 -5
-6 6 -1 11 2 17 5 13 3 -3 4 -12 1 -19z m40 0 c-3 -8 -6 -5 -6 6 -1 11 2 17 5
13 3 -3 4 -12 1 -19z m1530 0 c-3 -8 -6 -5 -6 6 -1 11 2 17 5 13 3 -3 4 -12 1
-19z m-1365 -8 l-23 -19 28 -4 c21 -3 18 -4 -12 -5 l-40 -1 28 24 c15 14 31
25 35 25 4 -1 -3 -9 -16 -20z m-195 -32 c-3 -8 -6 -5 -6 6 -1 11 2 17 5 13 3
-3 4 -12 1 -19z m100 -133 c63 -124 174 -244 289 -311 55 -32 58 -43 4 -13
-65 37 -156 115 -210 182 -53 64 -136 220 -145 272 -3 17 3 9 13 -20 11 -27
33 -77 49 -110z m1474 83 c-36 -109 -105 -215 -205 -313 -113 -112 -241 -188
-351 -209 -16 -4 -1 4 35 17 244 89 439 283 512 509 12 37 24 66 26 63 2 -2
-5 -32 -17 -67z m-163 40 c16 -16 15 -23 -4 -42 -12 -12 -20 -13 -35 -6 -19
10 -26 40 -12 53 10 11 38 8 51 -5z m-1170 -34 c2 -11 -4 -26 -12 -33 -31 -26
-71 14 -45 45 17 21 53 14 57 -12z m1132 -45 l25 -20 -32 16 c-18 8 -33 18
-33 20 0 10 16 4 40 -16z m116 -56 c-72 -138 -191 -257 -329 -329 -38 -20 -70
-34 -72 -32 -2 2 29 20 68 40 136 71 254 189 325 325 20 39 38 70 40 68 2 -2
-12 -34 -32 -72z m-1354 -119 c83 -112 206 -209 344 -269 43 -19 72 -35 64
-35 -8 0 -61 23 -118 51 -157 78 -294 215 -376 376 -40 80 -31 78 12 -3 21
-38 54 -92 74 -120z m115 160 c-18 -10 -27 -21 -23 -30 3 -9 1 -12 -4 -9 -23
14 6 54 40 54 8 0 2 -7 -13 -15z m1068 -4 c-3 -5 5 -15 19 -22 14 -6 26 -15
26 -20 0 -5 -11 -1 -25 8 -13 8 -29 13 -35 9 -14 -9 -13 8 2 23 15 15 21 16
13 2z m-1039 -44 c-28 -22 -29 -24 -10 -34 16 -10 16 -11 2 -12 -9 0 -18 6
-21 13 -5 14 31 57 47 57 6 0 -2 -11 -18 -24z m1036 -58 c-9 -9 -17 -9 -37 2
-14 7 -25 18 -25 23 0 6 8 3 18 -6 19 -17 42 -23 42 -10 0 4 -10 18 -22 32
-21 24 -20 24 7 -1 23 -22 27 -30 17 -40z m-992 48 c0 -2 -8 -10 -17 -17 -16
-13 -17 -12 -4 4 13 16 21 21 21 13z m25 -36 c15 -17 16 -20 3 -15 -10 4 -22
-2 -32 -17 -9 -12 -16 -17 -16 -11 0 6 7 16 15 23 9 7 14 19 11 27 -7 18 -2
16 19 -7z m909 -25 c18 -14 17 -45 -2 -45 -15 0 -44 38 -37 49 8 14 16 13 39
-4z m-890 -30 c-9 -14 -21 -25 -27 -25 -6 0 0 11 13 25 13 14 25 25 27 25 2 0
-4 -11 -13 -25z m862 -43 c-8 -7 -25 8 -37 31 -11 21 -10 21 15 -2 14 -14 24
-26 22 -29z m-836 23 c-7 -8 -10 -22 -6 -30 3 -9 2 -13 -4 -10 -11 7 -13 38
-3 48 13 14 25 7 13 -8z m38 -21 c-1 -9 -10 -20 -18 -22 -13 -5 -13 -3 -1 11
7 9 10 25 7 34 -6 14 -4 15 4 7 7 -7 10 -20 8 -30z m742 1 c0 -7 6 -15 13 -18
6 -2 4 -3 -6 -1 -14 2 -17 -2 -12 -14 4 -11 -3 -8 -18 8 -14 14 -22 29 -20 33
3 5 12 0 20 -10 14 -17 14 -17 10 5 -3 12 -1 20 4 16 5 -3 9 -11 9 -19z m-707
-40 c6 -36 5 -37 -4 -12 -10 26 -12 27 -26 10 -8 -11 -7 -5 3 14 10 18 19 31
20 30 1 -1 4 -20 7 -42z m642 -5 c15 -6 25 -13 22 -16 -3 -3 -15 -1 -26 6 -23
12 -28 1 -9 -18 7 -7 8 -12 2 -12 -6 0 -16 11 -22 25 -14 31 -15 38 -3 31 4
-3 21 -10 36 -16z m-546 -14 c-5 -6 -16 -20 -24 -31 -14 -19 -14 -18 -5 8 6
16 8 32 5 37 -3 4 4 6 14 3 14 -3 17 -9 10 -17z m502 -7 c8 -15 8 -24 0 -32
-8 -8 -11 -5 -11 10 0 24 -15 37 -31 28 -7 -5 -4 -16 7 -33 l16 -27 -22 22
c-20 18 -21 24 -10 37 17 22 37 20 51 -5z m-474 -29 c-6 -16 -13 -28 -15 -26
-6 6 10 56 18 56 5 0 3 -13 -3 -30z m32 -9 c-6 -18 -13 -30 -15 -28 -2 2 1 18
7 36 6 18 13 30 15 28 2 -2 -1 -18 -7 -36z m358 27 c-18 -14 -12 -31 13 -41
10 -4 8 -6 -6 -6 -12 -1 -25 6 -28 15 -7 18 10 44 27 44 6 0 3 -6 -6 -12z
m-321 -13 c-3 -8 -1 -15 3 -15 5 0 12 6 14 13 3 6 4 -3 4 -20 -2 -34 -16 -47
-18 -15 0 14 -2 14 -9 -3 -8 -19 -9 -19 -9 2 -1 23 8 53 16 53 3 0 3 -7 -1
-15z m84 -10 c14 -17 7 -43 -15 -52 -24 -8 -39 12 -31 41 7 29 27 34 46 11z
m96 0 c-8 -9 -13 -22 -10 -30 7 -18 21 -19 27 -2 3 7 6 4 6 -6 1 -23 -27 -19
-42 5 -11 17 5 48 25 48 5 0 3 -7 -6 -15z m53 -30 l0 -20 -9 20 c-5 11 -9 27
-9 35 -1 13 0 13 9 0 5 -8 9 -24 9 -35z m33 15 c3 -16 1 -30 -4 -30 -4 0 -8 6
-9 13 0 6 -2 20 -4 30 -2 9 0 17 5 17 4 0 10 -13 12 -30z m-150 -10 c3 -16 1
-30 -4 -30 -4 0 -8 14 -8 30 0 17 2 30 4 30 2 0 6 -13 8 -30z m-292 -75 c14
-8 21 -14 15 -14 -5 0 -21 6 -35 14 -14 8 -20 14 -15 14 6 0 21 -6 35 -14z
m80 -30 c19 -7 28 -14 20 -14 -8 0 -28 6 -45 14 -39 17 -21 18 25 0z m67 -21
c-3 -3 -12 -4 -19 -1 -8 3 -5 6 6 6 11 1 17 -2 13 -5z m340 0 c-3 -3 -12 -4
-19 -1 -8 3 -5 6 6 6 11 1 17 -2 13 -5z m-274 -11 c-7 -2 -21 -2 -30 0 -10 3
-4 5 12 5 17 0 24 -2 18 -5z m225 0 c-10 -2 -26 -2 -35 0 -10 3 -2 5 17 5 19
0 27 -2 18 -5z m-100 -10 c-15 -2 -42 -2 -60 0 -18 2 -6 4 27 4 33 0 48 -2 33
-4z m-231 -9 c-3 -3 -12 -4 -19 -1 -8 3 -5 6 6 6 11 1 17 -2 13 -5z m122 -20
c8 -7 -64 -2 -89 6 -16 6 -6 7 30 3 30 -3 57 -7 59 -9z m264 9 c-7 -2 -19 -2
-25 0 -7 3 -2 5 12 5 14 0 19 -2 13 -5z m-55 -10 c-10 -2 -28 -2 -40 0 -13 2
-5 4 17 4 22 1 32 -1 23 -4z m-100 -10 c-15 -2 -42 -2 -60 0 -18 2 -6 4 27 4
33 0 48 -2 33 -4z"/>
<path d="M1234 1605 c-7 -18 3 -35 21 -35 15 0 28 27 19 41 -8 14 -34 11 -40
-6z"/>
<path d="M740 1275 l-255 -255 258 -258 257 -257 257 257 258 258 -255 255
c-140 140 -257 255 -260 255 -3 0 -120 -115 -260 -255z m323 -99 c54 -23 80
-59 85 -120 5 -68 -17 -117 -67 -148 -30 -19 -51 -23 -129 -24 -88 -1 -125 8
-82 19 19 5 20 14 20 130 0 119 -1 127 -22 141 -21 15 -17 16 70 16 56 0 105
-5 125 -14z"/>
<path d="M940 1041 c0 -128 0 -129 24 -135 73 -18 136 45 136 136 0 80 -47
128 -126 128 l-34 0 0 -129z"/>
<path d="M540 1491 c0 -6 5 -13 10 -16 6 -3 10 1 10 9 0 9 -4 16 -10 16 -5 0
-10 -4 -10 -9z"/>
<path d="M1581 1271 c-19 -12 -6 -43 16 -39 10 2 18 12 18 22 0 22 -14 29 -34
17z"/>
<path d="M1570 750 c0 -13 7 -20 19 -20 25 0 38 20 20 31 -23 15 -39 10 -39
-11z"/>
<path d="M400 735 c-9 -10 -10 -19 -3 -26 14 -14 45 0 41 19 -4 22 -23 25 -38
7z"/>
<path d="M1442 540 c12 -19 28 -27 28 -14 0 7 -27 34 -34 34 -4 0 -1 -9 6 -20z"/>
<path d="M914 375 c-9 -23 14 -45 26 -25 5 8 8 19 7 24 -6 17 -27 18 -33 1z"/>
</g>
</svg>
